<?xml version="1.0" encoding="UTF-8"?>
<svg xmlns="http://www.w3.org/2000/svg" viewBox="0 0 1843.294 831.077">
  <defs>
    <style>
      .cls-1, .cls-2, .cls-3, .cls-4, .cls-5, .cls-6, .cls-7, .cls-8, .cls-9, .cls-10 {
        stroke: #000;
        stroke-miterlimit: 10;
      }

      .cls-1, .cls-3, .cls-4, .cls-5, .cls-6, .cls-7, .cls-8, .cls-9, .cls-10 {
        fill: none;
      }

      .cls-11 {
        font-size: 11.514px;
      }

      .cls-11, .cls-12, .cls-13, .cls-14, .cls-15, .cls-16, .cls-17, .cls-18, .cls-19, .cls-20, .cls-21, .cls-22, .cls-23, .cls-24, .cls-25, .cls-26, .cls-27, .cls-28, .cls-29, .cls-30 {
        font-family: CascadiaCode-Roman, 'Cascadia Code';
        font-variation-settings: 'wght' 400;
      }

      .cls-31, .cls-2 {
        fill: #fff;
      }

      .cls-12 {
        font-size: 25.041px;
      }

      .cls-13 {
        font-size: 9.8px;
      }

      .cls-14 {
        font-size: 18.766px;
      }

      .cls-32 {
        font-size: 8.572px;
      }

      .cls-32, .cls-33 {
        font-family: FranklinGothic-Medium, 'Franklin Gothic Medium';
        font-weight: 500;
      }

      .cls-15 {
        font-size: 16.758px;
      }

      .cls-16 {
        font-size: 19.999px;
      }

      .cls-3 {
        stroke-dasharray: 10.655 10.655;
      }

      .cls-34 {
        fill: #fffff1;
        font-family: MyriadPro-Regular, 'Myriad Pro';
        font-size: 14.011px;
      }

      .cls-17 {
        font-size: 15.685px;
      }

      .cls-18 {
        font-size: 14.688px;
      }

      .cls-19 {
        font-size: 9.57px;
      }

      .cls-20 {
        font-size: 10.379px;
      }

      .cls-21 {
        font-size: 13.901px;
      }

      .cls-22 {
        font-size: 12.788px;
      }

      .cls-23 {
        font-size: 13.845px;
      }

      .cls-24 {
        font-size: 6.536px;
      }

      .cls-4 {
        stroke-dasharray: 7.445;
      }

      .cls-25 {
        font-size: 14.842px;
      }

      .cls-33 {
        font-size: 9.914px;
      }

      .cls-26 {
        font-size: 9.833px;
      }

      .cls-27 {
        font-size: 9.345px;
      }

      .cls-28 {
        font-size: 10.82px;
      }

      .cls-5 {
        stroke-dasharray: 10.919 10.919;
      }

      .cls-6 {
        stroke-dasharray: 13.033 13.033;
      }

      .cls-29 {
        font-size: 15.475px;
      }

      .cls-7 {
        stroke-dasharray: 8.447;
      }

      .cls-30 {
        font-size: 10.037px;
      }

      .cls-8 {
        stroke-dasharray: 11.965 11.965;
      }

      .cls-9 {
        stroke-dasharray: 9.795 9.795;
      }

      .cls-10 {
        stroke-dasharray: 11.958 11.958;
      }
    </style>
  </defs>
  <g id="_Слой_1" data-name="Слой 1">
    <path class="cls-2" d="M1561.192,213.374c1.25-1.862,4.114-.592,9.055,1.455,3.873,1.636,7.7,3.22,11.669,4.863,27.774,11.552,58.797,23.782,86.829,35.357,5.12,1.981,4.979,5.809,5.023,11.66.014,5.299.015,10.5.012,16.086.002,15.796-.001,33.328,0,49.079-.003,9.528.005,17.951-.005,23.69-.227,5.287.543,8.908-2.526,11.51-22.713,10.444-78.815,30.851-104.023,41.146-2.083.74-4.351,1.781-5.979.747-1.175-1.173-1.276-3.078-1.437-5.062-.113-2.009-.159-4.284-.163-6.498.006-11.865-.051-30.904.017-43.806.03-2.498.132-5.207.563-7.449,1.511-8.537,10.743-10.014,18.083-12.952,15.602-5.207,19.259-8.779,19.172-26.061.061-8.192-.934-17.37-7.827-22.373-7.01-5.57-17.096-7.443-23.424-13.009-4.819-4.623-4.339-11.132-4.827-17.86-.358-8.788-.89-21.249-1.174-29.7-.156-5.659-.078-9.297.932-10.781l.029-.043Z"/>
    <text class="cls-14" transform="translate(1616.296 306.338)"><tspan x="0" y="0">ALU</tspan></text>
    <rect class="cls-2" x="1513.774" y="118.226" width="134.226" height="59.913" rx="17.393" ry="17.393"/>
    <text class="cls-18" transform="translate(1531.307 137.787)"><tspan x="0" y="0">SR</tspan></text>
    <g>
      <rect class="cls-31" x="1560.274" y="147.746" width="21.705" height="18.151" rx="4.862" ry="4.862"/>
      <path d="M1577.118,148.246c2.405,0,4.362,1.957,4.362,4.362v8.427c0,2.405-1.957,4.362-4.362,4.362h-11.981c-2.405,0-4.362-1.957-4.362-4.362v-8.427c0-2.405,1.957-4.362,4.362-4.362h11.981M1577.118,147.246h-11.981c-2.961,0-5.362,2.401-5.362,5.362v8.427c0,2.961,2.401,5.362,5.362,5.362h11.981c2.961,0,5.362-2.401,5.362-5.362v-8.427c0-2.961-2.401-5.362-5.362-5.362h0Z"/>
    </g>
    <g>
      <path class="cls-31" d="M1542.432,147.746h11.981c2.683,0,4.862,2.179,4.862,4.862v8.427c0,2.683-2.179,4.862-4.862,4.862h-11.98c-2.683,0-4.862-2.179-4.862-4.862v-8.428c0-2.683,2.178-4.861,4.861-4.861Z"/>
      <path d="M1554.413,148.246c2.405,0,4.362,1.957,4.362,4.362v8.427c0,2.405-1.957,4.362-4.362,4.362h-11.981c-2.405,0-4.362-1.957-4.362-4.362v-8.427c0-2.405,1.957-4.362,4.362-4.362h11.981M1554.413,147.246h-11.981c-2.961,0-5.362,2.401-5.362,5.362v8.427c0,2.961,2.401,5.362,5.362,5.362h11.981c2.961,0,5.362-2.401,5.362-5.362v-8.427c0-2.961-2.401-5.362-5.362-5.362h0Z"/>
    </g>
    <text class="cls-32" transform="translate(1543.451 159.34)"><tspan x="0" y="0">Z</tspan></text>
    <text class="cls-32" transform="translate(1567.882 159.461)"><tspan x="0" y="0">N</tspan></text>
    <rect class="cls-2" x="137.74" y="248.565" width="81.564" height="65.29" rx="12.355" ry="12.355"/>
    <text class="cls-12" transform="translate(152.04 277.808)"><tspan x="0" y="0">PC</tspan></text>
    <text class="cls-34" transform="translate(630.536 810.761)"><tspan x="0" y="0">flags/CU</tspan></text>
    <rect class="cls-2" x="767.454" y="230.71" width="81.564" height="56.028" rx="12.355" ry="12.355"/>
    <text class="cls-16" transform="translate(781.562 258.173)"><tspan x="0" y="0">IR</tspan></text>
    <rect class="cls-2" x="1059.726" y="354.003" width="197.832" height="58.787" rx="12.355" ry="12.355"/>
    <text class="cls-12" transform="translate(1077.473 385.543)"><tspan x="0" y="0">Sign-Extend</tspan></text>
    <line class="cls-1" x1="1443.602" y1="435.516" x2="1443.602" y2="366.697"/>
    <line class="cls-1" x1="1443.602" y1="435.046" x2="1472.607" y2="418.98"/>
    <line class="cls-1" x1="1443.602" y1="366.379" x2="1472.288" y2="384.779"/>
    <line class="cls-1" x1="1472.288" y1="384.779" x2="1472.288" y2="419.525"/>
    <rect class="cls-2" x="1715.847" y="283.388" width="126.947" height="48.791" rx="12.355" ry="12.355"/>
    <text class="cls-17" transform="translate(1732.514 311.011)"><tspan x="0" y="0">ALUOut/RES</tspan></text>
    <line class="cls-1" x1="281.14" y1="303.652" x2="281.14" y2="252.2"/>
    <line class="cls-1" x1="281.14" y1="303.301" x2="302.826" y2="291.289"/>
    <line class="cls-1" x1="281.14" y1="251.962" x2="302.587" y2="265.719"/>
    <line class="cls-1" x1="302.587" y1="265.719" x2="302.587" y2="291.697"/>
    <line class="cls-1" x1="302.587" y1="278.708" x2="344.646" y2="278.708"/>
    <line class="cls-1" x1="1490.991" y1="266.716" x2="1490.991" y2="209.559"/>
    <line class="cls-1" x1="1490.991" y1="266.325" x2="1515.082" y2="252.982"/>
    <line class="cls-1" x1="1490.991" y1="209.295" x2="1514.816" y2="224.577"/>
    <line class="cls-1" x1="1514.816" y1="224.577" x2="1514.816" y2="253.435"/>
    <rect class="cls-2" x="762.95" y="390.806" width="81.564" height="56.028" rx="12.355" ry="12.355"/>
    <text class="cls-16" transform="translate(777.058 418.269)"><tspan x="0" y="0">DR</tspan></text>
    <line class="cls-1" x1="699.121" y1="269.566" x2="701.73" y2="269.566"/>
    <line class="cls-1" x1="337.863" y1="273.295" x2="344.646" y2="278.862"/>
    <line class="cls-1" x1="337.863" y1="284.121" x2="344.646" y2="278.72"/>
    <line class="cls-1" x1="337.863" y1="355.605" x2="344.646" y2="361.172"/>
    <line class="cls-1" x1="337.863" y1="366.431" x2="344.646" y2="361.029"/>
    <line class="cls-1" x1="310.398" y1="387.86" x2="310.398" y2="336.408"/>
    <line class="cls-1" x1="310.398" y1="387.508" x2="332.084" y2="375.497"/>
    <line class="cls-1" x1="310.398" y1="336.17" x2="331.845" y2="349.927"/>
    <line class="cls-1" x1="331.845" y1="349.927" x2="331.845" y2="375.905"/>
    <line class="cls-1" x1="331.785" y1="361.172" x2="343.941" y2="361.172"/>
    <rect class="cls-2" x="377.357" y="239.347" width="81.564" height="56.028" rx="12.355" ry="12.355"/>
    <rect class="cls-2" x="140.596" y="376.095" width="81.564" height="65.29" rx="12.355" ry="12.355"/>
    <text class="cls-12" transform="translate(154.896 405.338)"><tspan x="0" y="0">SPC</tspan></text>
    <rect class="cls-2" x="127.974" y="21.288" width="81.564" height="65.29" rx="12.355" ry="12.355"/>
    <text class="cls-12" transform="translate(146.748 52.761)"><tspan x="0" y="0">SFl</tspan></text>
    <g>
      <path class="cls-31" d="M1548.862,92.66h19.981c2.683,0,4.862,2.179,4.862,4.862v11.068c0,2.684-2.179,4.862-4.862,4.862h-19.98c-2.683,0-4.861-2.178-4.861-4.861v-11.07c0-2.683,2.178-4.861,4.861-4.861Z"/>
      <path d="M1568.842,93.16c2.405,0,4.362,1.957,4.362,4.362v11.069c0,2.405-1.957,4.362-4.362,4.362h-19.981c-2.405,0-4.362-1.957-4.362-4.362v-11.069c0-2.405,1.957-4.362,4.362-4.362h19.981M1568.842,92.16h-19.981c-2.961,0-5.362,2.401-5.362,5.362v11.069c0,2.961,2.401,5.362,5.362,5.362h19.981c2.961,0,5.362-2.401,5.362-5.362v-11.069c0-2.961-2.401-5.362-5.362-5.362h0Z"/>
    </g>
    <g>
      <path class="cls-31" d="M1587.841,92.66h19.981c2.683,0,4.862,2.179,4.862,4.862v11.068c0,2.684-2.179,4.862-4.862,4.862h-19.98c-2.683,0-4.861-2.178-4.861-4.861v-11.07c0-2.683,2.178-4.861,4.861-4.861Z"/>
      <path d="M1607.822,93.16c2.405,0,4.362,1.957,4.362,4.362v11.069c0,2.405-1.957,4.362-4.362,4.362h-19.981c-2.405,0-4.362-1.957-4.362-4.362v-11.069c0-2.405,1.957-4.362,4.362-4.362h19.981M1607.822,92.16h-19.981c-2.961,0-5.362,2.401-5.362,5.362v11.069c0,2.961,2.401,5.362,5.362,5.362h19.981c2.961,0,5.362-2.401,5.362-5.362v-11.069c0-2.961-2.401-5.362-5.362-5.362h0Z"/>
    </g>
    <text class="cls-33" transform="translate(1554.354 106.362)"><tspan x="0" y="0">IE</tspan></text>
    <text class="cls-33" transform="translate(1593.108 106.352)"><tspan x="0" y="0">IH</tspan></text>
    <line class="cls-1" x1="86.772" y1="323.47" x2="86.772" y2="241.227"/>
    <line class="cls-1" x1="86.772" y1="322.908" x2="118.818" y2="303.708"/>
    <line class="cls-1" x1="86.772" y1="240.848" x2="118.465" y2="262.837"/>
    <line class="cls-1" x1="118.465" y1="262.837" x2="118.465" y2="304.36"/>
    <text class="cls-25" transform="translate(1418.056 411.794)"><tspan x="0" y="0">4</tspan></text>
    <line class="cls-1" x1="219.305" y1="264.987" x2="281.14" y2="264.987"/>
    <line class="cls-1" x1="902.026" y1="277.985" x2="902.026" y2="220.828"/>
    <line class="cls-1" x1="902.026" y1="277.595" x2="926.116" y2="264.251"/>
    <line class="cls-1" x1="902.026" y1="220.564" x2="925.851" y2="235.846"/>
    <line class="cls-1" x1="925.851" y1="235.846" x2="925.851" y2="264.704"/>
    <line class="cls-1" x1="1429.369" y1="407.233" x2="1443.729" y2="407.233"/>
    <line class="cls-1" x1="716.575" y1="266.008" x2="767.454" y2="266.008"/>
    <line class="cls-1" x1="849.019" y1="258.724" x2="873.252" y2="258.724"/>
    <line class="cls-1" x1="943.98" y1="154.753" x2="873.252" y2="154.753"/>
    <line class="cls-1" x1="873.252" y1="258.724" x2="873.252" y2="154.753"/>
    <line class="cls-1" x1="943.98" y1="179.774" x2="873.252" y2="179.774"/>
    <line class="cls-1" x1="943.98" y1="203.902" x2="873.252" y2="203.902"/>
    <line class="cls-1" x1="926.116" y1="249.029" x2="943.98" y2="249.029"/>
    <line class="cls-1" x1="873.252" y1="258.724" x2="873.252" y2="375.987"/>
    <line class="cls-1" x1="1059.726" y1="383.396" x2="873.252" y2="383.396"/>
    <line class="cls-1" x1="873.252" y1="375.987" x2="873.252" y2="383.396"/>
    <line class="cls-1" x1="250.222" y1="264.987" x2="250.222" y2="71.088"/>
    <line class="cls-1" x1="1490.991" y1="224.206" x2="1436.421" y2="224.206"/>
    <line class="cls-1" x1="250.222" y1="71.787" x2="1418.432" y2="71.787"/>
    <line class="cls-1" x1="1436.421" y1="224.206" x2="1436.421" y2="71.231"/>
    <line class="cls-1" x1="1418.432" y1="71.787" x2="1436.421" y2="71.787"/>
    <line class="cls-1" x1="1257.559" y1="380.072" x2="1443.602" y2="380.072"/>
    <path class="cls-2" d="M1488.671,484.095c.889-1.324,2.924-.421,6.437,1.034,2.753,1.163,5.473,2.289,8.295,3.457,19.743,8.212,41.796,16.905,61.722,25.134,3.64,1.408,3.539,4.129,3.571,8.289.01,3.767.011,7.464.009,11.434.001,11.228-.001,23.691,0,34.888-.002,6.773.004,12.76-.003,16.84-.161,3.758.386,6.332-1.796,8.182-16.145,7.424-56.025,21.931-73.945,29.249-1.481.526-3.093,1.266-4.25.531-.835-.833-.907-2.188-1.021-3.598-.081-1.428-.113-3.045-.116-4.619.004-8.434-.036-21.968.012-31.139.022-1.775.094-3.701.4-5.295,1.074-6.069,7.636-7.119,12.854-9.207,11.09-3.701,13.69-6.24,13.628-18.525.044-5.823-.664-12.348-5.564-15.904-4.983-3.96-12.153-5.291-16.651-9.247-3.426-3.286-3.084-7.913-3.431-12.696-.255-6.247-.633-15.105-.835-21.112-.111-4.023-.056-6.609.662-7.664l.021-.03Z"/>
    <text class="cls-11" transform="translate(1521.48 550.169)"><tspan x="0" y="0">Vector </tspan><tspan x="0" y="13.817">ALU</tspan></text>
    <line class="cls-1" x1="1367.7" y1="516.731" x2="1489.05" y2="516.731"/>
    <line class="cls-1" x1="1367.7" y1="583.625" x2="1487.562" y2="583.625"/>
    <line class="cls-1" x1="1472.607" y1="395.838" x2="1559.811" y2="395.838"/>
    <line class="cls-1" x1="1515.082" y1="238.137" x2="1561.021" y2="238.137"/>
    <line class="cls-1" x1="1673.782" y1="306.525" x2="1715.847" y2="306.525"/>
    <line class="cls-1" x1="742.015" y1="266.008" x2="742.015" y2="418.82"/>
    <line class="cls-1" x1="762.95" y1="418.82" x2="743.326" y2="418.82"/>
    <line class="cls-1" x1="741.739" y1="418.82" x2="744.635" y2="418.82"/>
    <line class="cls-1" x1="1779.321" y1="332.179" x2="1779.321" y2="717.5"/>
    <line class="cls-1" x1="86.772" y1="306.338" x2="66.547" y2="306.338"/>
    <line class="cls-1" x1="1779.321" y1="717.5" x2="66.547" y2="717.5"/>
    <line class="cls-1" x1="66.547" y1="306.338" x2="66.547" y2="717.5"/>
    <line class="cls-1" x1="1694.815" y1="306.525" x2="1694.815" y2=".5"/>
    <line class="cls-1" x1="86.772" y1="256.635" x2="57.036" y2="256.635"/>
    <line class="cls-1" x1="1694.815" y1=".5" x2="62.015" y2=".5"/>
    <line class="cls-1" x1="57.036" y1="256.635" x2="57.036" y2=".5"/>
    <line class="cls-1" x1="62.015" y1=".5" x2="57.036" y2=".5"/>
    <line class="cls-1" x1="274.615" y1="259.574" x2="281.398" y2="265.141"/>
    <line class="cls-1" x1="274.615" y1="270.4" x2="281.398" y2="264.998"/>
    <line class="cls-1" x1="80.361" y1="251.222" x2="87.144" y2="256.79"/>
    <line class="cls-1" x1="80.361" y1="262.049" x2="87.144" y2="256.647"/>
    <line class="cls-1" x1="1554.238" y1="232.724" x2="1561.021" y2="238.292"/>
    <line class="cls-1" x1="1554.238" y1="243.551" x2="1561.021" y2="238.149"/>
    <line class="cls-1" x1="1552.849" y1="390.425" x2="1559.632" y2="395.992"/>
    <line class="cls-1" x1="1552.849" y1="401.251" x2="1559.632" y2="395.849"/>
    <line class="cls-1" x1="1482.267" y1="511.318" x2="1489.05" y2="516.886"/>
    <line class="cls-1" x1="1482.267" y1="522.145" x2="1489.05" y2="516.743"/>
    <line class="cls-1" x1="1480.779" y1="577.807" x2="1487.561" y2="583.374"/>
    <line class="cls-1" x1="1480.779" y1="588.633" x2="1487.562" y2="583.232"/>
    <line class="cls-1" x1="79.989" y1="300.925" x2="86.772" y2="306.492"/>
    <line class="cls-1" x1="79.989" y1="311.751" x2="86.772" y2="306.349"/>
    <line class="cls-1" x1="118.465" y1="281.21" x2="137.74" y2="281.21"/>
    <line class="cls-1" x1="130.958" y1="275.797" x2="137.74" y2="281.365"/>
    <line class="cls-1" x1="130.958" y1="286.623" x2="137.74" y2="281.222"/>
    <line class="cls-1" x1="1484.208" y1="218.793" x2="1490.991" y2="224.361"/>
    <line class="cls-1" x1="1484.208" y1="229.62" x2="1490.991" y2="224.218"/>
    <line class="cls-1" x1="1436.946" y1="401.996" x2="1443.729" y2="407.563"/>
    <line class="cls-1" x1="1436.946" y1="412.822" x2="1443.729" y2="407.42"/>
    <line class="cls-1" x1="1437.251" y1="374.659" x2="1444.034" y2="380.226"/>
    <line class="cls-1" x1="1437.251" y1="385.485" x2="1444.034" y2="380.083"/>
    <line class="cls-1" x1="937.197" y1="198.488" x2="943.98" y2="204.056"/>
    <line class="cls-1" x1="937.197" y1="209.315" x2="943.98" y2="203.913"/>
    <line class="cls-1" x1="937.677" y1="174.361" x2="944.46" y2="179.928"/>
    <line class="cls-1" x1="937.677" y1="185.187" x2="944.46" y2="179.786"/>
    <line class="cls-1" x1="937.197" y1="149.339" x2="943.98" y2="154.907"/>
    <line class="cls-1" x1="937.197" y1="160.166" x2="943.98" y2="154.764"/>
    <line class="cls-1" x1="937.795" y1="243.616" x2="944.577" y2="249.184"/>
    <line class="cls-1" x1="937.795" y1="254.442" x2="944.577" y2="249.041"/>
    <line class="cls-1" x1="1052.944" y1="377.983" x2="1059.726" y2="383.551"/>
    <line class="cls-1" x1="1052.944" y1="388.81" x2="1059.726" y2="383.408"/>
    <line class="cls-1" x1="1353.576" y1="148.182" x2="1398.244" y2="148.182"/>
    <line class="cls-1" x1="1490.991" y1="240.85" x2="1398.244" y2="240.85"/>
    <line class="cls-1" x1="1398.244" y1="148.182" x2="1398.244" y2="240.85"/>
    <line class="cls-1" x1="1353.576" y1="204.835" x2="1371.627" y2="204.835"/>
    <line class="cls-1" x1="1443.602" y1="395.838" x2="1375.91" y2="395.838"/>
    <line class="cls-1" x1="1371.627" y1="204.835" x2="1371.627" y2="395.992"/>
    <line class="cls-1" x1="1375.91" y1="395.838" x2="1371.308" y2="395.838"/>
    <line class="cls-1" x1="1436.819" y1="390.425" x2="1443.602" y2="395.992"/>
    <line class="cls-1" x1="1436.819" y1="401.251" x2="1443.602" y2="395.849"/>
    <line class="cls-1" x1="178.523" y1="313.855" x2="178.523" y2="375.497"/>
    <line class="cls-1" x1="140.596" y1="411.101" x2="51.978" y2="411.101"/>
    <line class="cls-1" x1="86.772" y1="291.289" x2="51.978" y2="291.289"/>
    <line class="cls-1" x1="51.978" y1="411.101" x2="51.978" y2="291.289"/>
    <line class="cls-1" x1="183.936" y1="369.312" x2="178.368" y2="376.095"/>
    <line class="cls-1" x1="173.11" y1="369.312" x2="178.511" y2="376.095"/>
    <line class="cls-1" x1="80.361" y1="285.876" x2="87.144" y2="291.443"/>
    <line class="cls-1" x1="80.361" y1="296.702" x2="87.144" y2="291.301"/>
    <line class="cls-1" x1="760.324" y1="260.595" x2="767.106" y2="266.162"/>
    <line class="cls-1" x1="760.324" y1="271.421" x2="767.106" y2="266.02"/>
    <line class="cls-1" x1="755.952" y1="413.407" x2="762.735" y2="418.974"/>
    <line class="cls-1" x1="755.952" y1="424.233" x2="762.735" y2="418.831"/>
    <line class="cls-1" x1="844.514" y1="418.974" x2="891.584" y2="418.974"/>
    <line class="cls-1" x1="902.026" y1="261.278" x2="891.584" y2="261.278"/>
    <line class="cls-1" x1="891.584" y1="418.974" x2="891.584" y2="261.278"/>
    <line class="cls-1" x1="895.879" y1="255.864" x2="902.662" y2="261.432"/>
    <line class="cls-1" x1="895.879" y1="266.691" x2="902.662" y2="261.289"/>
    <line class="cls-1" x1="1593.748" y1="224.577" x2="1593.748" y2="178.138"/>
    <line class="cls-1" x1="1588.335" y1="185.079" x2="1593.902" y2="178.296"/>
    <line class="cls-1" x1="1599.161" y1="185.079" x2="1593.759" y2="178.296"/>
    <line class="cls-1" x1="891.584" y1="418.974" x2="1444.034" y2="418.974"/>
    <line class="cls-1" x1="1437.251" y1="413.567" x2="1444.034" y2="419.134"/>
    <line class="cls-1" x1="1437.251" y1="424.393" x2="1444.034" y2="418.992"/>
    <line class="cls-1" x1="310.398" y1="371.754" x2="290.055" y2="371.754"/>
    <line class="cls-1" x1="1371.609" y1="395.844" x2="1371.291" y2="445.755"/>
    <line class="cls-1" x1="290.055" y1="371.754" x2="290.055" y2="458.746"/>
    <line class="cls-1" x1="290.055" y1="458.746" x2="1371.627" y2="458.746"/>
    <line class="cls-1" x1="303.615" y1="366.341" x2="310.398" y2="371.908"/>
    <line class="cls-1" x1="303.615" y1="377.167" x2="310.398" y2="371.765"/>
    <line class="cls-1" x1="1537.07" y1="118.226" x2="1537.07" y2="44.432"/>
    <line class="cls-1" x1="1537.07" y1="44.432" x2="208.899" y2="44.432"/>
    <line class="cls-1" x1="215.845" y1="49.845" x2="209.063" y2="44.277"/>
    <line class="cls-1" x1="215.845" y1="39.019" x2="209.063" y2="44.42"/>
    <line class="cls-1" x1="1558.241" y1="113.184" x2="1558.241" y2="117.907"/>
    <line class="cls-1" x1="1599.794" y1="113.953" x2="1599.794" y2="118.226"/>
    <line class="cls-1" x1="1542.483" y1="111.822" x2="1536.916" y2="118.605"/>
    <line class="cls-1" x1="1531.657" y1="111.822" x2="1537.059" y2="118.605"/>
    <line class="cls-1" x1="803.732" y1="446.834" x2="803.732" y2="614.215"/>
    <line class="cls-1" x1="951.76" y1="614.943" x2="958.543" y2="620.511"/>
    <line class="cls-1" x1="951.76" y1="625.758" x2="958.543" y2="620.357"/>
    <rect class="cls-2" x="1590.512" y="527.956" width="65.484" height="48.791" rx="12.355" ry="12.355"/>
    <text class="cls-17" transform="translate(1607.179 555.58)"><tspan x="0" y="0">VRES</tspan></text>
    <line class="cls-1" x1="1568.486" y1="552.811" x2="1590.512" y2="552.811"/>
    <line class="cls-1" x1="1583.416" y1="547.687" x2="1590.199" y2="553.255"/>
    <line class="cls-1" x1="1583.416" y1="558.513" x2="1590.199" y2="553.112"/>
    <line class="cls-1" x1="1623.254" y1="576.747" x2="1623.254" y2="678.269"/>
    <line class="cls-1" x1="310.398" y1="356.955" x2="263.039" y2="356.955"/>
    <line class="cls-1" x1="1623.254" y1="678.269" x2="263.039" y2="678.269"/>
    <line class="cls-1" x1="263.039" y1="356.955" x2="263.039" y2="678.269"/>
    <line class="cls-1" x1="303.605" y1="351.449" x2="310.407" y2="357.112"/>
    <line class="cls-1" x1="303.605" y1="362.461" x2="310.408" y2="356.967"/>
    <text class="cls-20" transform="translate(1493.755 240.85)"><tspan x="0" y="0">MUX</tspan></text>
    <text class="cls-20" transform="translate(1448.204 403.857)"><tspan x="0" y="0">MUX</tspan></text>
    <text class="cls-22" transform="translate(91.379 289.255)"><tspan x="0" y="0">MUX</tspan></text>
    <text class="cls-20" transform="translate(282.741 281.941)"><tspan x="0" y="0">MUX</tspan></text>
    <text class="cls-20" transform="translate(311.677 365.497)"><tspan x="0" y="0">MUX</tspan></text>
    <text class="cls-20" transform="translate(904.546 253.726)"><tspan x="0" y="0">MUX</tspan></text>
    <rect class="cls-2" x="762.95" y="525.648" width="85.425" height="26.805" rx="12.355" ry="12.355"/>
    <text class="cls-28" transform="translate(771.888 542.44)"><tspan x="0" y="0">Vector Load</tspan></text>
    <line class="cls-1" x1="921.749" y1="648.935" x2="921.749" y2="591.778"/>
    <line class="cls-1" x1="921.749" y1="648.544" x2="945.84" y2="635.201"/>
    <line class="cls-1" x1="921.749" y1="591.514" x2="945.574" y2="606.796"/>
    <line class="cls-1" x1="945.574" y1="606.796" x2="945.574" y2="635.654"/>
    <line class="cls-1" x1="921.749" y1="613.258" x2="803.732" y2="613.258"/>
    <line class="cls-1" x1="881.151" y1="678.269" x2="881.151" y2="635.654"/>
    <line class="cls-1" x1="921.749" y1="635.654" x2="881.151" y2="635.654"/>
    <line class="cls-1" x1="914.844" y1="630.241" x2="921.627" y2="635.808"/>
    <line class="cls-1" x1="914.844" y1="641.067" x2="921.627" y2="635.666"/>
    <line class="cls-1" x1="914.966" y1="607.845" x2="921.749" y2="613.412"/>
    <line class="cls-1" x1="914.966" y1="618.671" x2="921.749" y2="613.27"/>
    <line class="cls-1" x1="945.574" y1="620.702" x2="958.104" y2="620.702"/>
    <text class="cls-20" transform="translate(924.13 624.425)"><tspan x="0" y="0">MUX</tspan></text>
    <line class="cls-1" x1="873.252" y1="383.396" x2="873.252" y2="569.416"/>
    <line class="cls-1" x1="958.104" y1="548.59" x2="873.731" y2="548.59"/>
    <line class="cls-1" x1="959.035" y1="524.024" x2="873.731" y2="524.024"/>
    <line class="cls-1" x1="958.543" y1="575.782" x2="873.731" y2="575.782"/>
    <line class="cls-1" x1="873.252" y1="569.416" x2="873.252" y2="575.782"/>
    <line class="cls-1" x1="951.76" y1="543.183" x2="958.543" y2="548.751"/>
    <line class="cls-1" x1="951.76" y1="553.998" x2="958.543" y2="548.596"/>
    <line class="cls-1" x1="952.346" y1="518.617" x2="959.129" y2="524.184"/>
    <line class="cls-1" x1="952.346" y1="529.431" x2="959.129" y2="524.03"/>
    <line class="cls-1" x1="951.76" y1="570.375" x2="958.543" y2="575.942"/>
    <line class="cls-1" x1="951.76" y1="581.189" x2="958.543" y2="575.788"/>
    <line class="cls-1" x1="281.398" y1="291.078" x2="242.366" y2="291.078"/>
    <line class="cls-1" x1="242.366" y1="717.5" x2="242.366" y2="291.697"/>
    <line class="cls-1" x1="274.062" y1="285.665" x2="280.844" y2="291.232"/>
    <line class="cls-1" x1="274.062" y1="296.491" x2="280.844" y2="291.089"/>
    <path d="M891.659,420.324c1.93,0,1.934-3,0-3s-1.934,3,0,3h0Z"/>
    <path d="M240.626,717.604c0,.008,0,.016,0,.025v.012c.019.133.037.266.055.399.003.017.007.032.013.048.097.291.214.515.435.733l.009.008.304.235c.007.005.013.01.021.014.122.071.257.127.392.167.142.042.299.055.441.062.008,0,.017,0,.025,0,.006,0,.012,0,.019-.002l.399-.054c.155-.03.305-.1.439-.182l.01-.007.304-.235c.007-.006.013-.011.019-.018.047-.049.116-.148.135-.173.031-.04.098-.113.132-.175.07-.125.121-.261.169-.396.006-.018.011-.035.015-.054.032-.161.067-.332.062-.499-.006-.163-.029-.326-.065-.485-.004-.016-.008-.032-.013-.048-.003-.008-.006-.016-.009-.023-.045-.121-.106-.265-.161-.381-.014-.03-.031-.058-.05-.086-.071-.1-.165-.218-.242-.314-.005-.006-.01-.013-.016-.019-.013-.016-.028-.03-.043-.044-.006-.005-.013-.011-.019-.016-.095-.079-.214-.17-.313-.242-.014-.01-.028-.019-.042-.028l-.358-.151-.012-.005-.013-.002-.399-.054-.399.054-.012.002c-.253.071-.485.206-.671.391-.091.09-.216.242-.283.38-.071.147-.15.3-.188.461-.004.018-.007.036-.01.054-.019.129-.045.283-.055.412,0,.009-.001.018-.002.027-.007.17.031.343.061.508.006.035.017.068.031.101.047.117.102.256.156.37.004.008.007.015.011.023.01.019.021.037.034.055.005.007.01.014.015.021.075.099.162.219.243.314.011.013.023.026.035.038.115.113.248.212.384.299.014.009.029.018.045.025.008.004.016.007.023.011.111.051.256.114.37.156.015.005.029.01.044.014.145.034.298.054.445.061.016,0,.031,0,.046,0l.199-.027c.07-.009.14-.019.211-.028.007-.002.014-.003.022-.005.007-.002.014-.005.02-.007l.179-.076c.064-.023.127-.05.189-.08.006-.004.012-.008.018-.012l.304-.235s.008-.007.012-.011c.195-.181.352-.471.42-.725.075-.278.076-.593-.004-.87-.019-.064-.071-.171-.081-.196-.013-.03-.053-.14-.086-.2-.057-.105-.341-.429-.254-.333-.011-.012-.021-.022-.033-.032l-.152-.117c-.053-.044-.107-.086-.163-.125-.01-.006-.02-.012-.031-.017-.063-.031-.147-.062-.198-.084-.055-.023-.132-.061-.199-.083-.02-.007-.041-.011-.062-.015-.162-.03-.338-.056-.507-.064-.048-.002-.095-.001-.143.004-.069.007-.318.029-.457.064-.08.02-.167.065-.236.094-.058.025-.157.057-.223.098-.007.004-.014.009-.021.014-.054.042-.108.083-.162.125-.055.04-.109.081-.161.125-.101.091-.236.293-.269.339-.011.015-.021.03-.03.046-.03.062-.064.15-.083.196-.016.038-.066.135-.083.202-.038.145-.06.297-.06.447s.02.302.06.446c.002.008.005.015.008.022l.151.358c.002.006.005.011.008.016.068.124.163.235.258.338.005.006.011.011.017.017.052.043.106.085.161.125.052.043.106.085.161.124.123.076.261.132.4.17.007.002.015.003.022.004l.399.054c.008,0,.016,0,.023,0,.207.008.399-.035.578-.129.186-.06.347-.164.483-.31.146-.136.25-.297.31-.483.094-.179.137-.371.129-.578l-.054-.399c-.071-.254-.2-.475-.386-.662l-.304-.235c-.234-.136-.486-.204-.757-.205-.008,0-.016,0-.023,0l.399.054c-.016-.002-.029-.006-.044-.012l.358.151c-.011-.005-.02-.011-.029-.018l.304.235c-.012-.01-.023-.021-.033-.033l.235.304c-.009-.013-.017-.026-.024-.041l.151.358c-.006-.015-.01-.03-.013-.046l.054.399c-.002-.016-.002-.031,0-.048l-.054.399c.003-.016.007-.031.012-.047l-.151.358c.01-.023.022-.043.037-.063l-.235.304c.014-.016.028-.03.044-.044l-.304.235c.023-.018.048-.033.075-.045l-.358.151c.037-.015.075-.024.115-.03l-.399.054c.078-.009.158-.006.236.005l-.399-.054c.033.005.065.013.096.024l-.358-.151c.022.009.042.02.061.034l-.304-.235c.012.01.023.02.033.032l-.235-.304c.012.016.022.032.029.05l-.151-.358c.005.015.009.029.011.044l-.054-.399c0,.012,0,.022,0,.033l.054-.399c-.002.011-.004.021-.008.032l.151-.358c-.005.011-.01.02-.017.029l.235-.304c-.007.009-.014.016-.023.023l.304-.235c-.009.006-.018.011-.028.016l.358-.151c-.017.007-.035.011-.053.014l.399-.054c-.02.002-.038.001-.058,0l.399.054c-.032-.004-.061-.013-.091-.025l.358.151c-.035-.016-.068-.035-.1-.058l.304.235c-.034-.027-.064-.056-.092-.09l.235.304c-.026-.034-.048-.071-.066-.11l.151.358c-.017-.042-.029-.084-.035-.128l.054.399c-.005-.041-.005-.082,0-.123l-.054.399c.006-.046.018-.089.035-.132l-.151.358c.014-.033.031-.064.052-.093l-.235.304.008-.008-.304.235.009-.006-.358.151.012-.002h-.798c.009,0,.017.003.025.007l-.358-.151c.018.01.036.022.052.035l-.304-.235c.029.024.055.05.078.079l-.235-.304c.025.033.046.069.062.107l-.151-.358c.016.039.027.078.033.119l-.054-.399c.005.041.006.082,0,.124l.054-.399c-.005.032-.013.062-.025.092l.151-.358c-.008.017-.016.033-.027.048l.235-.304c-.011.014-.023.027-.037.039l.304-.235c-.014.01-.027.018-.043.025l.358-.151c-.016.006-.031.01-.048.013l.399-.054c-.017.002-.033.002-.05,0l.399.054c-.017-.002-.032-.006-.048-.012l.358.151c-.015-.007-.029-.015-.043-.025l.304.235c-.013-.011-.024-.022-.035-.036l.235.304c-.01-.014-.018-.028-.024-.043l.151.358c-.006-.016-.01-.031-.013-.048l.054.399c-.001-.013-.002-.025,0-.037.008-.207-.035-.399-.129-.578-.06-.186-.164-.347-.31-.483-.136-.146-.297-.25-.483-.31-.179-.094-.371-.137-.578-.129l-.399.054c-.254.071-.475.2-.662.386l-.235.304c-.136.234-.204.486-.205.757h0Z"/>
    <line class="cls-1" x1="861.135" y1="717.5" x2="861.135" y2="243.616"/>
    <line class="cls-1" x1="902.026" y1="244.313" x2="861.135" y2="244.313"/>
    <line class="cls-1" x1="895.243" y1="238.9" x2="902.026" y2="244.468"/>
    <line class="cls-1" x1="895.243" y1="249.727" x2="902.026" y2="244.325"/>
    <line class="cls-1" x1="630.422" y1="382.491" x2="637.204" y2="388.059"/>
    <line class="cls-1" x1="630.422" y1="393.318" x2="637.205" y2="387.916"/>
  </g>
  <g id="_Слой_2" data-name="Слой 2">
    <rect class="cls-2" x="943.98" y="90.568" width="409.596" height="204.688" rx="51.497" ry="51.497"/>
    <text class="cls-12" transform="translate(1061.829 145.103)"><tspan x="0" y="0">Register File</tspan></text>
    <rect class="cls-2" x="342.265" y="205.895" width="377.543" height="234.272" rx="24.894" ry="24.894"/>
    <text class="cls-23" transform="translate(463.02 198.488)"><tspan x="0" y="0">INSTR/DATA MEMORY</tspan></text>
    <g>
      <line class="cls-1" x1="465.804" y1="276.699" x2="465.804" y2="282.699"/>
      <line class="cls-5" x1="465.804" y1="293.618" x2="465.804" y2="331.835"/>
      <line class="cls-1" x1="465.804" y1="337.295" x2="465.804" y2="343.295"/>
    </g>
    <g>
      <line class="cls-1" x1="567.563" y1="342.804" x2="567.563" y2="336.804"/>
      <line class="cls-8" x1="567.563" y1="324.838" x2="567.563" y2="282.96"/>
      <line class="cls-1" x1="567.563" y1="276.978" x2="567.563" y2="270.978"/>
    </g>
    <g>
      <line class="cls-1" x1="506.586" y1="268.277" x2="512.586" y2="268.277"/>
      <line class="cls-9" x1="522.381" y1="268.277" x2="556.665" y2="268.277"/>
      <line class="cls-1" x1="561.563" y1="268.277" x2="567.563" y2="268.277"/>
    </g>
    <line class="cls-1" x1="567.563" y1="270.978" x2="567.563" y2="267.731"/>
    <g>
      <line class="cls-1" x1="506.586" y1="247.592" x2="512.586" y2="247.592"/>
      <line class="cls-6" x1="525.619" y1="247.592" x2="623.369" y2="247.592"/>
      <line class="cls-1" x1="629.886" y1="247.592" x2="635.886" y2="247.592"/>
    </g>
    <g>
      <line class="cls-1" x1="638.542" y1="343.295" x2="638.542" y2="337.295"/>
      <line class="cls-10" x1="638.542" y1="325.337" x2="638.542" y2="259.571"/>
      <line class="cls-1" x1="638.542" y1="253.592" x2="638.542" y2="247.592"/>
    </g>
    <line class="cls-1" x1="635.822" y1="247.592" x2="639.054" y2="247.592"/>
    <line class="cls-1" x1="388.744" y1="279.805" x2="448.488" y2="279.805"/>
    <line class="cls-1" x1="448.488" y1="279.805" x2="448.488" y2="343.295"/>
    <line class="cls-1" x1="577.56" y1="343.056" x2="577.56" y2="254.465"/>
    <line class="cls-1" x1="650.326" y1="343.056" x2="650.326" y2="276.699"/>
    <line class="cls-1" x1="484.369" y1="393.112" x2="484.369" y2="428.337"/>
    <line class="cls-1" x1="696.701" y1="285.574" x2="680.454" y2="285.574"/>
    <line class="cls-1" x1="484.369" y1="428.337" x2="680.454" y2="428.337"/>
    <line class="cls-1" x1="680.454" y1="285.574" x2="680.454" y2="428.337"/>
    <line class="cls-1" x1="650.326" y1="276.699" x2="650.326" y2="266.373"/>
    <line class="cls-1" x1="577.56" y1="254.465" x2="696.701" y2="254.465"/>
    <line class="cls-4" x1="638.542" y1="247.592" x2="638.542" y2="240.147"/>
    <line class="cls-7" x1="703.819" y1="248.594" x2="703.819" y2="240.147"/>
    <g>
      <line class="cls-1" x1="638.542" y1="240.147" x2="644.542" y2="240.147"/>
      <line class="cls-3" x1="655.197" y1="240.147" x2="692.491" y2="240.147"/>
      <line class="cls-1" x1="697.819" y1="240.147" x2="703.819" y2="240.147"/>
    </g>
  </g>
  <g id="_Слой_4" data-name="Слой 4">
    <text class="cls-21" transform="translate(958.651 157.249)"><tspan x="0" y="0">RA1</tspan></text>
    <text class="cls-21" transform="translate(956.521 183.521)"><tspan x="0" y="0">RA2</tspan></text>
    <text class="cls-21" transform="translate(957.473 210.875)"><tspan x="0" y="0">WA</tspan></text>
    <text class="cls-21" transform="translate(957.609 251.742)"><tspan x="0" y="0">WD</tspan></text>
    <text class="cls-29" transform="translate(1318.077 154.147)"><tspan x="0" y="0">RD1</tspan></text>
    <text class="cls-29" transform="translate(1319.016 209.017)"><tspan x="0" y="0">RD2</tspan></text>
    <text class="cls-21" transform="translate(348.895 275.336)"><tspan x="0" y="0">RA1</tspan></text>
    <text class="cls-21" transform="translate(356.953 358.388)"><tspan x="0" y="0">WD</tspan></text>
    <text class="cls-21" transform="translate(954.308 379.691)"><tspan x="0" y="0">imm</tspan></text>
    <text class="cls-19" transform="translate(892.568 151.637)"><tspan x="0" y="0">rs1</tspan></text>
    <text class="cls-26" transform="translate(891.199 177.145)"><tspan x="0" y="0">rs2/rd</tspan></text>
    <text class="cls-27" transform="translate(892.322 201.596)"><tspan x="0" y="0">rd</tspan></text>
  </g>
  <g id="_Слой_5" data-name="Слой 5">
    <rect class="cls-2" x="425.021" y="226.882" width="81.564" height="49.817" rx="12.355" ry="12.355"/>
    <line class="cls-1" x1="343.941" y1="279.805" x2="389.272" y2="279.805"/>
    <line class="cls-1" x1="425.021" y1="252.2" x2="389.272" y2="252.2"/>
    <line class="cls-1" x1="389.272" y1="279.805" x2="389.272" y2="251.962"/>
    <g>
      <path d="M436.749,240.721l2.044-7.068h1.446l2.044,7.068h-1.047l-1.675-6.212h-.09l-1.675,6.212h-1.047ZM437.696,238.999v-.946h3.59v.946h-3.59Z"/>
      <path d="M443.206,240.721v-7.068h.997v7.068h-.997ZM444.133,240.721v-.946h.788c.728,0,1.276-.208,1.643-.622.367-.415.551-1.037.551-1.867,0-.899-.184-1.572-.551-2.019s-.915-.669-1.643-.669h-.768l-.12-.946h.887c2.161,0,3.241,1.211,3.241,3.634,0,2.29-1.081,3.435-3.241,3.435h-.788Z"/>
      <path d="M449.189,240.721v-7.068h.997v7.068h-.997ZM450.116,240.721v-.946h.788c.728,0,1.276-.208,1.643-.622.367-.415.551-1.037.551-1.867,0-.899-.184-1.572-.551-2.019s-.915-.669-1.643-.669h-.768l-.12-.946h.887c2.161,0,3.241,1.211,3.241,3.634,0,2.29-1.081,3.435-3.241,3.435h-.788Z"/>
      <path d="M455.172,240.721v-7.068h.997v7.068h-.997ZM456.099,238.033v-.946h1.506c.396,0,.704-.104.925-.313.221-.209.332-.503.332-.881,0-.415-.111-.734-.332-.958-.221-.224-.529-.336-.925-.336h-1.486l-.12-.946h1.605c.734,0,1.302.186,1.703.558.4.372.601.899.601,1.583,0,.71-.2,1.261-.601,1.652-.401.392-.968.587-1.703.587h-1.506ZM458.971,240.721l-1.586-3.325h1.097l1.685,3.325h-1.196Z"/>
      <path d="M461.255,240.721v-7.068h.997v7.068h-.997ZM461.255,234.598v-.946h4.687v.946h-4.687ZM461.255,237.654v-.945h3.789v.945h-3.789ZM461.255,240.721v-.946h4.687v.946h-4.687Z"/>
      <path d="M469.187,240.82c-.402,0-.778-.032-1.129-.097-.351-.064-.676-.162-.975-.291l.13-1.005c.366.156.719.274,1.06.355.34.082.672.122.995.122.465,0,.811-.081,1.037-.244s.339-.41.339-.742c0-.421-.216-.73-.648-.926l-1.227-.558c-.482-.219-.852-.483-1.109-.792-.258-.309-.387-.692-.387-1.15,0-.617.186-1.095.559-1.434.372-.338.899-.508,1.581-.508.475,0,.896.07,1.261.209.366.139.718.367,1.057.682l-.698.707c-.293-.239-.566-.413-.82-.52-.254-.108-.52-.162-.795-.162-.342,0-.607.082-.795.247-.188.164-.282.407-.282.729,0,.229.062.416.185.56s.304.273.543.386l1.037.488c.525.246.924.523,1.197.832s.409.705.409,1.189c0,.641-.208,1.121-.625,1.441-.417.32-1.05.48-1.897.48Z"/>
      <path d="M475.17,240.82c-.402,0-.778-.032-1.129-.097-.351-.064-.676-.162-.975-.291l.13-1.005c.366.156.719.274,1.06.355.34.082.672.122.995.122.465,0,.811-.081,1.037-.244s.339-.41.339-.742c0-.421-.216-.73-.648-.926l-1.227-.558c-.482-.219-.852-.483-1.109-.792-.258-.309-.387-.692-.387-1.15,0-.617.186-1.095.559-1.434.372-.338.899-.508,1.581-.508.475,0,.896.07,1.261.209.366.139.718.367,1.057.682l-.698.707c-.293-.239-.566-.413-.82-.52-.254-.108-.52-.162-.795-.162-.342,0-.607.082-.795.247-.188.164-.282.407-.282.729,0,.229.062.416.185.56s.304.273.543.386l1.037.488c.525.246.924.523,1.197.832s.409.705.409,1.189c0,.641-.208,1.121-.625,1.441-.417.32-1.05.48-1.897.48Z"/>
      <path d="M440.254,253.053c-2.201,0-3.301-1.214-3.301-3.644,0-1.151.277-2.043.833-2.676.555-.632,1.338-.948,2.349-.948.489,0,.914.078,1.276.232s.626.374.793.659l-.738.732c-.149-.226-.34-.4-.571-.523-.231-.123-.481-.184-.75-.184-.642,0-1.156.231-1.543.692-.387.461-.581,1.117-.581,1.966,0,1.852.801,2.777,2.403,2.777.482,0,.958-.1,1.426-.298l.229.876c-.578.226-1.187.338-1.825.338Z"/>
      <path d="M445.499,253.053c-1.742,0-2.613-1.195-2.613-3.584,0-2.456.871-3.684,2.613-3.684s2.612,1.228,2.612,3.684c0,2.389-.871,3.584-2.612,3.584ZM445.499,252.137c1.043,0,1.565-.889,1.565-2.668,0-1.845-.522-2.768-1.565-2.768s-1.566.923-1.566,2.768c0,1.779.522,2.668,1.566,2.668Z"/>
      <path d="M449.189,252.954v-7.068h.997v7.068h-.997ZM450.116,252.954v-.946h.788c.728,0,1.276-.208,1.643-.622.367-.415.551-1.037.551-1.867,0-.899-.184-1.572-.551-2.019s-.915-.669-1.643-.669h-.768l-.12-.946h.887c2.161,0,3.241,1.211,3.241,3.634,0,2.29-1.081,3.435-3.241,3.435h-.788Z"/>
      <path d="M455.271,252.954v-7.068h.997v7.068h-.997ZM455.271,246.831v-.946h4.687v.946h-4.687ZM455.271,249.887v-.945h3.789v.945h-3.789ZM455.271,252.954v-.946h4.687v.946h-4.687Z"/>
      <path d="M437.223,265.187v-7.068h.997v7.068h-.997ZM438.15,265.187v-.946h.788c.728,0,1.276-.208,1.643-.622.367-.415.551-1.037.551-1.867,0-.899-.184-1.572-.551-2.019s-.915-.669-1.643-.669h-.768l-.12-.946h.887c2.161,0,3.241,1.211,3.241,3.634,0,2.29-1.081,3.435-3.241,3.435h-.788Z"/>
      <path d="M443.305,265.187v-7.068h.997v7.068h-.997ZM443.305,259.064v-.946h4.687v.946h-4.687ZM443.305,262.12v-.945h3.789v.945h-3.789ZM443.305,265.187v-.946h4.687v.946h-4.687Z"/>
      <path d="M452.22,265.286c-2.201,0-3.301-1.214-3.301-3.644,0-1.151.277-2.043.833-2.676.555-.632,1.338-.948,2.349-.948.489,0,.914.078,1.276.232s.626.374.793.659l-.738.732c-.149-.226-.34-.4-.571-.523-.231-.123-.481-.184-.75-.184-.642,0-1.156.231-1.543.692-.387.461-.581,1.117-.581,1.966,0,1.852.801,2.777,2.403,2.777.482,0,.958-.1,1.426-.298l.229.876c-.578.226-1.187.338-1.825.338Z"/>
      <path d="M457.465,265.286c-1.742,0-2.613-1.195-2.613-3.584,0-2.456.871-3.684,2.613-3.684s2.612,1.228,2.612,3.684c0,2.389-.871,3.584-2.612,3.584ZM457.465,264.37c1.043,0,1.565-.889,1.565-2.668,0-1.845-.522-2.768-1.565-2.768s-1.566.923-1.566,2.768c0,1.779.522,2.668,1.566,2.668Z"/>
      <path d="M461.155,265.187v-7.068h.997v7.068h-.997ZM462.083,265.187v-.946h.788c.728,0,1.276-.208,1.643-.622.367-.415.551-1.037.551-1.867,0-.899-.184-1.572-.551-2.019s-.915-.669-1.643-.669h-.768l-.12-.946h.887c2.161,0,3.241,1.211,3.241,3.634,0,2.29-1.081,3.435-3.241,3.435h-.788Z"/>
      <path d="M467.238,265.187v-7.068h.997v7.068h-.997ZM467.238,259.064v-.946h4.687v.946h-4.687ZM467.238,262.12v-.945h3.789v.945h-3.789ZM467.238,265.187v-.946h4.687v.946h-4.687Z"/>
      <path d="M473.122,265.187v-7.068h.997v7.068h-.997ZM474.049,262.499v-.946h1.506c.396,0,.704-.104.925-.313.221-.209.332-.503.332-.881,0-.415-.111-.734-.332-.958-.221-.224-.529-.336-.925-.336h-1.486l-.12-.946h1.605c.734,0,1.302.186,1.703.558.4.372.601.899.601,1.583,0,.71-.2,1.261-.601,1.652-.401.392-.968.587-1.703.587h-1.506ZM476.921,265.187l-1.586-3.325h1.097l1.685,3.325h-1.196Z"/>
    </g>
    <rect class="cls-2" x="607.236" y="343.295" width="66.278" height="49.817" rx="12.355" ry="12.355"/>
    <rect class="cls-2" x="536.257" y="342.804" width="62.612" height="49.817" rx="12.355" ry="12.355"/>
    <rect class="cls-2" x="438.745" y="343.295" width="61.591" height="49.817" rx="12.355" ry="12.355"/>
    <line class="cls-1" x1="471.217" y1="336.512" x2="465.649" y2="343.295"/>
    <line class="cls-1" x1="460.39" y1="336.512" x2="465.792" y2="343.295"/>
    <line class="cls-1" x1="572.976" y1="336.021" x2="567.408" y2="342.804"/>
    <line class="cls-1" x1="562.15" y1="336.021" x2="567.551" y2="342.804"/>
    <line class="cls-1" x1="643.955" y1="336.274" x2="638.387" y2="343.056"/>
    <line class="cls-1" x1="633.128" y1="336.274" x2="638.53" y2="343.056"/>
    <text class="cls-21" transform="translate(456.194 371.754)"><tspan x="0" y="0">RAM</tspan></text>
    <text class="cls-30" transform="translate(538.836 365.453)"><tspan x="0" y="0">Input Port </tspan><tspan x="0" y="12.044">@0x1FF8</tspan></text>
    <text class="cls-13" transform="translate(610.575 365.453)"><tspan x="0" y="0">Output Port </tspan><tspan x="0" y="11.759">@0x1FFC</tspan></text>
    <line class="cls-1" x1="343.941" y1="361.172" x2="379.442" y2="361.172"/>
    <line class="cls-1" x1="468.433" y1="393.112" x2="468.433" y2="415.983"/>
    <line class="cls-1" x1="379.442" y1="361.172" x2="379.442" y2="415.983"/>
    <line class="cls-1" x1="468.433" y1="415.983" x2="379.442" y2="415.983"/>
    <line class="cls-1" x1="463.02" y1="399.828" x2="468.587" y2="393.046"/>
    <line class="cls-1" x1="473.846" y1="399.828" x2="468.445" y2="393.046"/>
    <text class="cls-15" transform="translate(1121.039 180.767)"><tspan x="0" y="0">R0-R7</tspan></text>
    <line class="cls-1" x1="453.902" y1="336.652" x2="448.334" y2="343.434"/>
    <line class="cls-1" x1="443.075" y1="336.652" x2="448.477" y2="343.434"/>
    <line class="cls-1" x1="689.918" y1="280.16" x2="696.701" y2="285.728"/>
    <line class="cls-1" x1="689.918" y1="290.987" x2="696.701" y2="285.585"/>
    <line class="cls-1" x1="689.53" y1="249.051" x2="696.313" y2="254.619"/>
    <line class="cls-1" x1="689.53" y1="259.878" x2="696.313" y2="254.476"/>
    <rect class="cls-2" x="958.104" y="482.302" width="409.596" height="181.384" rx="51.497" ry="51.497"/>
    <text class="cls-12" transform="translate(1075.954 513.532)"><tspan x="0" y="0">Vector File</tspan></text>
    <text class="cls-21" transform="translate(972.775 525.679)"><tspan x="0" y="0">RA1</tspan></text>
    <text class="cls-21" transform="translate(973.728 552.453)"><tspan x="0" y="0">RA2</tspan></text>
    <text class="cls-21" transform="translate(974.679 579.049)"><tspan x="0" y="0">WA</tspan></text>
    <text class="cls-21" transform="translate(968.687 625.028)"><tspan x="0" y="0">WD</tspan></text>
    <text class="cls-29" transform="translate(1332.201 522.577)"><tspan x="0" y="0">RD1</tspan></text>
    <text class="cls-29" transform="translate(1333.261 589.343)"><tspan x="0" y="0">RD2</tspan></text>
    <text class="cls-15" transform="translate(1135.163 549.197)"><tspan x="0" y="0">V0-V3</tspan></text>
    <text/>
    <line class="cls-1" x1="1371.308" y1="445.748" x2="1371.308" y2="458.746"/>
    <line class="cls-1" x1="468.433" y1="415.983" x2="641.497" y2="415.983"/>
    <line class="cls-1" x1="641.171" y1="393.112" x2="641.171" y2="415.983"/>
    <line class="cls-1" x1="644.913" y1="272.957" x2="650.481" y2="266.174"/>
    <line class="cls-1" x1="655.739" y1="272.957" x2="650.338" y2="266.174"/>
  </g>
  <g id="_Слой_6" data-name="Слой 6">
    <line class="cls-1" x1="696.701" y1="291.4" x2="696.701" y2="244.245"/>
    <line class="cls-1" x1="696.701" y1="291.078" x2="716.575" y2="280.069"/>
    <line class="cls-1" x1="696.701" y1="244.028" x2="716.356" y2="256.635"/>
    <line class="cls-1" x1="716.356" y1="256.635" x2="716.356" y2="280.443"/>
    <text class="cls-24" transform="translate(698.226 257.034)"><tspan x="0" y="0">00</tspan></text>
    <text class="cls-24" transform="translate(698.162 268.134)"><tspan x="0" y="0">01</tspan></text>
    <text class="cls-24" transform="translate(698.532 285.235)"><tspan x="0" y="0">11</tspan></text>
    <text class="cls-24" transform="translate(698.532 276.97)"><tspan x="0" y="0">10</tspan></text>
    <line class="cls-1" x1="635.758" y1="399.559" x2="641.325" y2="392.776"/>
    <line class="cls-1" x1="646.584" y1="399.559" x2="641.183" y2="392.776"/>
  </g>
</svg>